<svg version="1.1" id="Layer_1" xmlns="http://www.w3.org/2000/svg" xmlns:xlink="http://www.w3.org/1999/xlink" x="0px" y="0px"
	 width="100%" viewBox="0 0 200 200" enable-background="new 0 0 200 200" xml:space="preserve">
<path fill="#FEFFFF" opacity="1.000000" stroke="none" 
	d="
M115.000000,201.000000 
	C76.690323,201.000000 38.880650,201.000000 1.035486,201.000000 
	C1.035486,134.398697 1.035486,67.797363 1.035486,1.098018 
	C67.559509,1.098018 134.119202,1.098018 200.839447,1.098018 
	C200.839447,67.666359 200.839447,134.333145 200.839447,201.000000 
	C172.464310,201.000000 143.982162,201.000000 115.000000,201.000000 
M69.122612,117.229599 
	C69.122612,117.229599 69.235977,117.559013 69.114746,118.276184 
	C67.989441,119.092567 66.864136,119.908951 65.118782,121.175171 
	C65.165794,120.578453 65.045906,121.076866 65.111961,121.549278 
	C65.178108,122.022484 65.318909,122.564316 65.616966,122.914246 
	C70.450890,128.589249 72.023514,137.404907 81.169815,139.731491 
	C83.103928,142.589325 85.038040,145.447174 86.983093,149.072937 
	C86.723869,152.976501 86.286057,156.881485 86.316719,160.782776 
	C86.325653,161.919724 87.420593,163.567307 88.457855,164.066742 
	C90.489746,165.045074 92.831123,165.380615 95.963074,166.018875 
	C99.626999,165.791199 103.290916,165.563522 107.667709,165.485626 
	C110.039207,164.772293 112.454231,164.175781 114.769936,163.312744 
	C117.081444,162.451279 117.097015,161.181458 114.995758,159.109970 
	C114.002785,156.456848 113.009811,153.803741 112.630569,150.848312 
	C114.732101,148.904022 116.833633,146.959732 119.648422,145.071884 
	C121.141060,145.998093 122.633698,146.924316 125.233170,148.537354 
	C125.769516,143.740829 126.326378,139.696732 126.543205,135.634476 
	C126.570244,135.127975 124.796547,134.525345 124.024223,133.280762 
	C124.692871,131.528427 125.361519,129.776093 126.502831,127.556793 
	C127.640579,125.359833 128.778336,123.162872 130.382065,120.486176 
	C134.593277,112.994797 138.804489,105.503418 143.479156,97.482849 
	C144.615585,91.656128 145.751999,85.829399 147.006165,79.209557 
	C147.237610,72.135391 147.298630,65.096199 142.835938,58.233624 
	C140.965439,51.547203 136.760376,46.489475 131.317657,41.535568 
	C127.538887,39.378654 123.760124,37.221741 119.499130,34.569469 
	C117.016548,33.399178 114.638374,31.860731 112.033401,31.122046 
	C100.485756,27.847511 89.311546,29.605619 77.851776,34.183990 
	C77.564850,34.418789 77.277924,34.653584 76.897484,35.211533 
	C76.897484,35.211533 76.832657,35.541637 76.379730,35.636147 
	C76.379730,35.636147 75.917786,35.609913 75.671524,35.412155 
	C75.320045,35.375427 75.100723,35.543392 74.651917,36.289032 
	C74.325645,36.306808 73.999367,36.324585 72.827301,36.142094 
	C70.533974,36.024841 68.759766,36.442726 69.531212,39.572083 
	C69.531212,39.572083 69.541740,39.749397 68.776253,39.389050 
	C65.743813,39.433376 58.870396,46.845001 58.023540,50.983727 
	C56.949684,56.231846 55.559792,56.810753 50.106884,52.664608 
	C51.467804,58.039406 52.507030,62.143700 53.434666,66.787300 
	C53.469635,67.145729 53.504604,67.504166 53.233326,68.547882 
	C53.198315,69.044502 53.163303,69.541122 52.961018,69.982208 
	C52.961018,69.982208 52.785290,69.968735 52.390373,70.402206 
	C52.312347,70.782646 52.234318,71.163078 52.412556,71.729790 
	C52.412556,71.729790 52.316341,72.031631 51.535114,72.101051 
	C49.350430,73.922913 48.960716,75.598640 52.054489,77.813011 
	C52.183254,78.894005 52.312019,79.974991 52.327950,81.883965 
	C52.516655,82.691628 52.705360,83.499298 52.756512,84.474091 
	C52.756512,84.474091 52.938221,84.591728 52.837395,85.347984 
	C52.808769,85.855865 52.780144,86.363747 51.972389,87.066460 
	C51.492172,87.786400 51.011951,88.506348 50.531734,89.226288 
	C51.560162,89.406296 52.588585,89.586311 53.920364,90.371117 
	C54.932137,92.593292 55.943909,94.815468 57.049141,97.591728 
	C57.143200,97.753708 57.237263,97.915680 57.391403,98.498795 
	C57.530361,98.755936 57.724415,98.960945 58.053535,99.813080 
	C61.384232,105.158569 64.714928,110.504059 68.175140,116.324493 
	C68.328529,116.631203 68.564125,116.848946 69.122612,117.229599 
z"/>
<path fill="#F9FAFC" opacity="1.000000" stroke="none" 
	d="
M81.080383,139.020081 
	C72.023514,137.404907 70.450890,128.589249 65.616966,122.914246 
	C65.318909,122.564316 65.178108,122.022484 65.111961,121.549278 
	C65.045906,121.076866 65.165794,120.578453 65.118782,121.175171 
	C66.864136,119.908951 67.989441,119.092567 69.437370,118.148407 
	C71.761887,120.816322 73.763786,123.612007 75.863083,126.731148 
	C77.424515,129.981094 78.888535,132.907578 80.847687,136.823807 
	C82.880119,131.065414 79.438347,128.166992 77.264313,124.507629 
	C75.196716,121.016136 73.179382,117.884621 71.055817,114.431412 
	C67.037796,107.964333 63.126007,101.818962 59.148613,95.312454 
	C57.719322,90.632851 56.355644,86.314392 55.205173,81.663010 
	C55.504314,78.498848 55.590248,75.667610 55.786068,72.451324 
	C57.113659,66.882706 58.331364,61.699131 59.549068,56.515556 
	C58.903095,56.322231 58.257122,56.128910 57.611149,55.935585 
	C56.414505,59.311813 55.217865,62.688042 53.899506,66.102501 
	C53.777786,66.140732 53.546253,66.247993 53.546253,66.247993 
	C52.507030,62.143700 51.467804,58.039406 50.106884,52.664608 
	C55.559792,56.810753 56.949684,56.231846 58.023540,50.983727 
	C58.870396,46.845001 65.743813,39.433376 69.018166,39.847408 
	C67.996208,41.793129 66.732330,43.280487 65.188202,44.902000 
	C62.936455,47.555481 60.964958,50.074810 58.891758,52.724098 
	C62.439205,54.028923 63.841690,52.772671 68.500122,44.930050 
	C71.546730,42.574764 74.299835,40.374924 77.427017,38.104424 
	C91.734482,31.576887 105.752975,30.892826 120.082733,37.657249 
	C123.107147,39.648785 125.926491,41.396576 128.933075,43.426411 
	C133.178650,48.786884 137.237015,53.865322 141.134521,59.312737 
	C142.023575,66.454865 143.073471,73.228004 144.063812,80.434715 
	C142.936935,86.152954 141.869629,91.437630 140.557861,96.971207 
	C136.197784,104.459030 132.082169,111.697952 127.732452,119.181488 
	C126.000755,122.283264 124.503159,125.140427 122.778275,128.259186 
	C120.844078,132.329971 118.069183,135.943909 120.464355,141.717758 
	C121.880440,138.482925 122.868835,136.225098 123.857224,133.967255 
	C124.796547,134.525345 126.570244,135.127975 126.543205,135.634476 
	C126.326378,139.696732 125.769516,143.740829 125.233170,148.537354 
	C122.633698,146.924316 121.141060,145.998093 118.972092,144.883377 
	C116.890938,144.931335 115.205147,144.748505 114.126305,145.471436 
	C106.361656,150.674454 98.324768,149.706970 89.945328,146.616714 
	C88.051826,143.988068 86.190140,141.733246 84.698570,139.255615 
	C83.431305,137.150604 82.428612,136.974091 81.080383,139.020081 
M98.209671,144.405258 
	C98.209671,144.405258 98.125526,144.169037 98.611435,143.339401 
	C98.610580,138.915375 98.609726,134.491364 98.827988,129.149734 
	C98.761665,124.103691 98.695335,119.057655 98.802406,113.096748 
	C98.767525,108.739998 98.732635,104.383255 98.865898,99.116119 
	C98.815269,95.735298 98.764648,92.354477 98.864227,88.053345 
	C98.813347,82.702095 98.762466,77.350838 98.882660,71.078560 
	C98.899048,66.603752 99.371513,62.066143 98.767113,57.676819 
	C98.381668,54.877617 96.401176,52.298050 94.488144,49.160255 
	C90.842644,49.879230 87.141045,50.399727 83.577065,51.407104 
	C81.973213,51.860435 80.764282,53.794849 79.167160,54.171871 
	C74.871178,55.185978 72.551880,57.618462 71.848854,62.619820 
	C70.927788,65.401039 70.006721,68.182259 68.293396,71.078232 
	C64.166260,74.754509 65.730370,78.916725 67.165382,83.778587 
	C67.180252,84.488327 67.195122,85.198074 66.706032,86.199234 
	C67.062576,86.802917 67.419121,87.406609 67.994087,88.695755 
	C70.242477,93.685783 76.565598,96.382973 76.065254,103.662415 
	C77.722046,105.570511 79.258308,107.602013 81.060020,109.361725 
	C85.165794,113.371803 90.218071,115.154953 95.814728,116.072037 
	C95.879791,125.314842 95.944855,134.557648 96.332787,144.368469 
	C96.909248,144.334656 97.485718,144.300827 98.209671,144.405258 
M103.701767,56.706509 
	C103.656837,57.427990 103.611908,58.149475 103.203392,59.626198 
	C103.258018,77.442108 103.312645,95.258018 103.339943,113.987274 
	C103.415062,118.150391 103.490173,122.313515 103.322525,127.489304 
	C103.273262,131.934265 103.121246,136.382278 103.253876,140.821808 
	C103.283493,141.813080 104.312599,142.774475 104.881531,143.749634 
	C105.558716,142.713135 106.805283,141.684418 106.819611,140.638840 
	C106.905174,134.392105 106.706673,128.141479 106.740860,121.048973 
	C106.740860,118.927124 106.740860,116.805275 106.740860,114.666458 
	C115.300957,115.033920 124.000702,109.669807 126.683266,102.210930 
	C126.719368,98.326401 127.496559,94.952187 131.385391,92.841118 
	C132.597488,92.183113 133.126160,90.266129 134.398819,88.288422 
	C134.602127,83.519997 134.805420,78.751564 135.000214,73.237862 
	C133.333298,69.483688 131.666367,65.729507 129.998276,61.236076 
	C128.605042,59.170288 127.590851,56.619946 125.723999,55.159592 
	C123.311699,53.272556 120.218155,52.256393 116.825897,50.317173 
	C107.920929,47.349567 104.816208,48.706081 103.701767,56.706509 
z"/>
<path fill="#F7EAFA" opacity="1.000000" stroke="none" 
	d="
M112.016846,151.150620 
	C113.009811,153.803741 114.002785,156.456848 114.672562,159.645233 
	C111.930794,161.023270 109.512222,161.866058 106.626236,162.752762 
	C101.953102,162.796692 97.747375,162.796692 92.952972,162.796692 
	C94.000755,164.392593 94.522583,165.187408 95.044403,165.982208 
	C92.831123,165.380615 90.489746,165.045074 88.457855,164.066742 
	C87.420593,163.567307 86.325653,161.919724 86.316719,160.782776 
	C86.286057,156.881485 86.723869,152.976501 87.178711,148.682480 
	C87.374321,148.292023 87.774605,148.333664 88.020798,148.598602 
	C90.184448,149.621613 92.074745,150.938812 94.024414,151.033508 
	C100.009666,151.324188 106.017677,151.146332 112.016846,151.150620 
M107.757370,158.611252 
	C108.835617,158.142410 109.913872,157.673569 110.992119,157.204727 
	C110.925316,156.915863 110.858521,156.626999 110.791718,156.338135 
	C103.742638,156.022934 96.693565,155.707733 89.348877,155.379318 
	C94.638245,160.317978 100.875305,159.048553 107.757370,158.611252 
z"/>
<path fill="#6EB29B" opacity="1.000000" stroke="none" 
	d="
M119.877670,37.413506 
	C105.752975,30.892826 91.734482,31.576887 77.398987,37.665131 
	C76.942139,36.711548 76.887398,36.126591 76.832657,35.541637 
	C76.832657,35.541637 76.897484,35.211533 77.222260,35.008717 
	C77.838348,34.580307 78.129654,34.354717 78.420959,34.129120 
	C89.311546,29.605619 100.485756,27.847511 112.033401,31.122046 
	C114.638374,31.860731 117.016548,33.399178 119.739960,35.208462 
	C119.946411,36.369473 119.912041,36.891487 119.877670,37.413506 
z"/>
<path fill="#AE5685" opacity="1.000000" stroke="none" 
	d="
M112.323700,150.999466 
	C106.017677,151.146332 100.009666,151.324188 94.024414,151.033508 
	C92.074745,150.938812 90.184448,149.621613 88.218674,148.291718 
	C88.826118,147.444580 89.481873,147.169250 90.137634,146.893936 
	C98.324768,149.706970 106.361656,150.674454 114.126305,145.471436 
	C115.205147,144.748505 116.890938,144.931335 118.615463,144.855164 
	C116.833633,146.959732 114.732101,148.904022 112.323700,150.999466 
z"/>
<path fill="#8077C7" opacity="1.000000" stroke="none" 
	d="
M127.966553,118.936874 
	C132.082169,111.697952 136.197784,104.459030 140.742615,97.257736 
	C141.786453,97.534264 142.401077,97.773155 143.015701,98.012047 
	C138.804489,105.503418 134.593277,112.994797 129.887360,120.601547 
	C128.917282,120.123566 128.441925,119.530220 127.966553,118.936874 
z"/>
<path fill="#8077C7" opacity="1.000000" stroke="none" 
	d="
M59.214222,95.673592 
	C63.126007,101.818962 67.037796,107.964333 70.861046,114.725014 
	C70.131821,115.585205 69.491127,115.830078 68.649002,116.019440 
	C68.447563,115.963928 68.045624,115.849541 68.045624,115.849541 
	C64.714928,110.504059 61.384232,105.158569 57.959064,99.260139 
	C57.753578,98.440796 57.575821,98.230949 57.331322,98.077660 
	C57.237263,97.915680 57.143200,97.753708 57.348896,97.267700 
	C58.170509,96.520317 58.692368,96.096954 59.214222,95.673592 
z"/>
<path fill="#608CD2" opacity="1.000000" stroke="none" 
	d="
M144.123367,80.001144 
	C143.073471,73.228004 142.023575,66.454865 141.391281,59.340065 
	C142.157700,58.992706 142.506500,58.987003 142.855316,58.981300 
	C147.298630,65.096199 147.237610,72.135391 146.601654,79.605606 
	C145.505890,80.001480 144.814621,80.001312 144.123367,80.001144 
z"/>
<path fill="#67A5B8" opacity="1.000000" stroke="none" 
	d="
M142.845627,58.607460 
	C142.506500,58.987003 142.157700,58.992706 141.552124,58.971085 
	C137.237015,53.865322 133.178650,48.786884 129.218857,43.305466 
	C130.073593,42.637661 130.829788,42.372837 131.585968,42.108017 
	C136.760376,46.489475 140.965439,51.547203 142.845627,58.607460 
z"/>
<path fill="#6B81D1" opacity="1.000000" stroke="none" 
	d="
M144.063812,80.434715 
	C144.814621,80.001312 145.505890,80.001480 146.542786,80.002167 
	C145.751999,85.829399 144.615585,91.656128 143.247437,97.747452 
	C142.401077,97.773155 141.786453,97.534264 140.987076,97.008835 
	C141.869629,91.437630 142.936935,86.152954 144.063812,80.434715 
z"/>
<path fill="#6B81D1" opacity="1.000000" stroke="none" 
	d="
M59.148613,95.312454 
	C58.692368,96.096954 58.170509,96.520317 57.302166,96.990662 
	C55.943909,94.815468 54.932137,92.593292 53.651779,89.784782 
	C53.172638,88.422844 52.962082,87.647232 52.751526,86.871628 
	C52.780144,86.363747 52.808769,85.855865 52.879791,84.935165 
	C52.922188,84.522346 52.894066,84.306961 52.894066,84.306961 
	C52.705360,83.499298 52.516655,82.691628 52.677185,81.456924 
	C53.681599,81.351898 54.336784,81.673920 54.991966,81.995934 
	C56.355644,86.314392 57.719322,90.632851 59.148613,95.312454 
z"/>
<path fill="#608CD2" opacity="1.000000" stroke="none" 
	d="
M54.021225,66.064270 
	C55.217865,62.688042 56.414505,59.311813 57.611149,55.935585 
	C58.257122,56.128910 58.903095,56.322231 59.549068,56.515556 
	C58.331364,61.699131 57.113659,66.882706 55.588226,72.235741 
	C54.563091,71.616051 53.845688,70.826897 53.128288,70.037743 
	C53.163303,69.541122 53.198315,69.044502 53.527805,68.015396 
	C53.888599,67.010033 53.954914,66.537148 54.021225,66.064270 
z"/>
<path fill="#AB73AB" opacity="1.000000" stroke="none" 
	d="
M123.940720,133.624008 
	C122.868835,136.225098 121.880440,138.482925 120.464355,141.717758 
	C118.069183,135.943909 120.844078,132.329971 123.156296,128.266678 
	C124.517799,128.016312 125.273979,128.020035 126.030167,128.023743 
	C125.361519,129.776093 124.692871,131.528427 123.940720,133.624008 
z"/>
<path fill="#6CAEA9" opacity="1.000000" stroke="none" 
	d="
M131.451813,41.821793 
	C130.829788,42.372837 130.073593,42.637661 129.031616,43.023430 
	C125.926491,41.396576 123.107147,39.648785 120.082741,37.657249 
	C119.912041,36.891487 119.946411,36.369473 119.981064,35.456139 
	C123.760124,37.221741 127.538887,39.378654 131.451813,41.821793 
z"/>
<path fill="#6CAEA9" opacity="1.000000" stroke="none" 
	d="
M76.606194,35.588890 
	C76.887398,36.126591 76.942139,36.711548 77.024918,37.735794 
	C74.299835,40.374924 71.546730,42.574764 68.043167,44.891365 
	C66.684631,44.928032 66.076546,44.847939 65.468460,44.767849 
	C66.732330,43.280487 67.996208,41.793129 69.400909,40.027580 
	C69.541740,39.749397 69.531212,39.572083 69.823044,39.514427 
	C71.300949,38.418633 72.487022,37.380497 73.673096,36.342361 
	C73.999367,36.324585 74.325645,36.306808 75.069969,36.059330 
	C75.488022,35.829628 75.917786,35.609913 75.917786,35.609913 
	C75.917786,35.609913 76.379730,35.636147 76.606194,35.588890 
z"/>
<path fill="#A06197" opacity="1.000000" stroke="none" 
	d="
M89.945328,146.616714 
	C89.481873,147.169250 88.826118,147.444580 87.972481,148.026779 
	C87.774605,148.333664 87.374321,148.292023 87.173233,148.298523 
	C85.038040,145.447174 83.103928,142.589325 81.125099,139.375793 
	C82.428612,136.974091 83.431305,137.150604 84.698570,139.255615 
	C86.190140,141.733246 88.051826,143.988068 89.945328,146.616714 
z"/>
<path fill="#6F97DA" opacity="1.000000" stroke="none" 
	d="
M53.044651,70.009979 
	C53.845688,70.826897 54.563091,71.616051 55.478340,72.620789 
	C55.590248,75.667610 55.504314,78.498848 55.205173,81.663010 
	C54.336784,81.673920 53.681599,81.351898 52.733601,81.042938 
	C52.312019,79.974991 52.183254,78.894005 52.077629,76.998444 
	C52.172630,74.799797 52.244484,73.415718 52.316341,72.031631 
	C52.316341,72.031631 52.412556,71.729790 52.515938,71.437286 
	C52.674644,70.752769 52.729965,70.360756 52.785286,69.968735 
	C52.785290,69.968735 52.961018,69.982208 53.044651,70.009979 
z"/>
<path fill="#A06197" opacity="1.000000" stroke="none" 
	d="
M95.503738,166.000549 
	C94.522583,165.187408 94.000755,164.392593 92.952972,162.796692 
	C97.747375,162.796692 101.953102,162.796692 106.611603,163.085648 
	C107.027863,164.028351 106.991356,164.682083 106.954842,165.335846 
	C103.290916,165.563522 99.626999,165.791199 95.503738,166.000549 
z"/>
<path fill="#9174B8" opacity="1.000000" stroke="none" 
	d="
M68.850433,116.074951 
	C69.491127,115.830078 70.131821,115.585205 70.967278,115.046722 
	C73.179382,117.884621 75.196716,121.016136 76.937347,124.687584 
	C76.362320,125.620911 76.063995,126.014297 75.765671,126.407692 
	C73.763786,123.612007 71.761887,120.816322 69.497986,117.789825 
	C69.235977,117.559013 69.122612,117.229599 69.009064,116.877571 
	C68.895515,116.525543 68.850433,116.074951 68.850433,116.074951 
z"/>
<path fill="#9174B8" opacity="1.000000" stroke="none" 
	d="
M107.311279,165.410736 
	C106.991356,164.682083 107.027863,164.028351 107.079010,163.041718 
	C109.512222,161.866058 111.930794,161.023270 114.676994,160.035339 
	C117.097015,161.181458 117.081444,162.451279 114.769936,163.312744 
	C112.454231,164.175781 110.039207,164.772293 107.311279,165.410736 
z"/>
<path fill="#9174B8" opacity="1.000000" stroke="none" 
	d="
M126.266495,127.790268 
	C125.273979,128.020035 124.517799,128.016312 123.383591,128.005096 
	C124.503159,125.140427 126.000755,122.283264 127.732452,119.181488 
	C128.441925,119.530220 128.917282,120.123566 129.654358,120.841408 
	C128.778336,123.162872 127.640579,125.359833 126.266495,127.790268 
z"/>
<path fill="#F9FAFC" opacity="1.000000" stroke="none" 
	d="
M73.250198,36.242226 
	C72.487022,37.380497 71.300949,38.418633 69.786743,39.433365 
	C68.759766,36.442726 70.533974,36.024841 73.250198,36.242226 
z"/>
<path fill="#F9FAFC" opacity="1.000000" stroke="none" 
	d="
M51.925728,72.066345 
	C52.244484,73.415718 52.172630,74.799797 52.017380,76.592239 
	C48.960716,75.598640 49.350430,73.922913 51.925728,72.066345 
z"/>
<path fill="#F9FAFC" opacity="1.000000" stroke="none" 
	d="
M52.361958,86.969040 
	C52.962082,87.647232 53.172638,88.422844 53.500107,89.482391 
	C52.588585,89.586311 51.560162,89.406296 50.531734,89.226288 
	C51.011951,88.506348 51.492172,87.786400 52.361958,86.969040 
z"/>
<path fill="#6F97DA" opacity="1.000000" stroke="none" 
	d="
M53.899506,66.102501 
	C53.954914,66.537148 53.888599,67.010033 53.680931,67.672752 
	C53.504604,67.504166 53.469635,67.145729 53.490459,66.517647 
	C53.546253,66.247993 53.777786,66.140732 53.899506,66.102501 
z"/>
<path fill="#F9FAFC" opacity="1.000000" stroke="none" 
	d="
M52.587830,70.185471 
	C52.729965,70.360756 52.674644,70.752769 52.387806,71.344154 
	C52.234318,71.163078 52.312347,70.782646 52.587830,70.185471 
z"/>
<path fill="#F9FAFC" opacity="1.000000" stroke="none" 
	d="
M68.649002,116.019440 
	C68.850433,116.074951 68.895515,116.525543 68.888718,116.751640 
	C68.564125,116.848946 68.328529,116.631203 68.110382,116.087021 
	C68.045624,115.849541 68.447563,115.963928 68.649002,116.019440 
z"/>
<path fill="#F9FAFC" opacity="1.000000" stroke="none" 
	d="
M75.794655,35.511032 
	C75.917786,35.609913 75.488022,35.829628 75.250786,35.872841 
	C75.100723,35.543392 75.320045,35.375427 75.794655,35.511032 
z"/>
<path fill="#F9FAFC" opacity="1.000000" stroke="none" 
	d="
M78.136368,34.156555 
	C78.129654,34.354717 77.838348,34.580307 77.269028,34.847137 
	C77.277924,34.653584 77.564850,34.418789 78.136368,34.156555 
z"/>
<path fill="#6B81D1" opacity="1.000000" stroke="none" 
	d="
M57.361362,98.288223 
	C57.575821,98.230949 57.753578,98.440796 57.919083,98.910507 
	C57.724415,98.960945 57.530361,98.755936 57.361362,98.288223 
z"/>
<path fill="#6F97DA" opacity="1.000000" stroke="none" 
	d="
M52.825287,84.390526 
	C52.894066,84.306961 52.922188,84.522346 52.930206,84.557037 
	C52.938221,84.591728 52.756512,84.474091 52.825287,84.390526 
z"/>
<path fill="#EEF5FE" opacity="1.000000" stroke="none" 
	d="
M67.268929,83.076759 
	C65.730370,78.916725 64.166260,74.754509 69.037933,71.038589 
	C71.082069,69.606842 72.381660,68.214745 73.976227,66.997025 
	C74.516815,67.785805 74.762421,68.400200 75.000031,69.423630 
	C73.069748,75.478828 74.184608,80.515350 78.118980,85.335655 
	C79.805061,88.780075 81.409149,91.891220 82.955383,95.396606 
	C80.983444,100.647263 82.246056,103.885788 87.319450,105.918968 
	C89.363602,106.738174 90.877083,108.881584 93.288391,110.998543 
	C86.223633,111.333656 78.911079,105.021996 78.074791,98.598160 
	C77.339668,96.315643 77.092056,93.630272 75.687180,92.708298 
	C72.492973,90.612038 70.751251,88.032516 70.342087,84.370377 
	C70.088058,82.096771 69.205383,81.341393 67.268929,83.076759 
z"/>
<path fill="#867BC8" opacity="1.000000" stroke="none" 
	d="
M126.263199,102.974632 
	C124.000702,109.669807 115.300957,115.033920 106.740860,114.666458 
	C106.740860,116.805275 106.740860,118.927124 106.377441,121.450760 
	C101.762878,121.574928 105.148911,125.341644 103.565292,126.476631 
	C103.490173,122.313515 103.415062,118.150391 103.540047,113.174713 
	C103.847191,108.565147 103.954231,104.768143 104.353790,100.954445 
	C105.328270,100.306969 106.010239,99.676186 106.712303,99.481049 
	C106.732407,102.431152 106.732407,104.945595 106.732407,107.561058 
	C110.475433,105.390511 113.631737,103.560196 116.988525,102.025040 
	C117.840263,102.560196 118.491531,102.800194 118.975876,103.341202 
	C115.720772,105.831223 112.632576,108.020233 109.544380,110.209244 
	C109.924377,110.736931 110.304375,111.264618 110.684372,111.792305 
	C115.976700,109.849052 120.670601,107.028122 124.096924,102.067978 
	C124.986320,102.428802 125.624756,102.701721 126.263199,102.974632 
z"/>
<path fill="#8077C7" opacity="1.000000" stroke="none" 
	d="
M78.036858,98.995941 
	C78.911079,105.021996 86.223633,111.333656 93.288391,110.998543 
	C90.877083,108.881584 89.363602,106.738174 87.319450,105.918968 
	C82.246056,103.885788 80.983444,100.647263 83.292816,95.393661 
	C84.363113,94.999695 85.038116,95.002907 85.774521,95.388321 
	C85.970253,97.755882 85.333557,100.517738 86.393845,101.570557 
	C88.866173,104.025467 92.154762,105.658325 95.931473,108.168381 
	C95.931473,105.111137 95.931473,102.553375 96.277817,99.991173 
	C97.315361,99.999985 98.006554,100.013245 98.697746,100.026505 
	C98.732635,104.383255 98.767525,108.739998 98.399918,113.561691 
	C97.304970,114.414490 96.612518,114.802345 95.920074,115.190216 
	C90.218071,115.154953 85.165794,113.371803 81.060020,109.361725 
	C79.258308,107.602013 77.722046,105.570511 76.070343,102.976486 
	C76.729240,101.192352 77.383049,100.094147 78.036858,98.995941 
z"/>
<path fill="#6CAEA9" opacity="1.000000" stroke="none" 
	d="
M117.417953,50.865231 
	C120.218155,52.256393 123.311699,53.272556 125.723999,55.159592 
	C127.590851,56.619946 128.605042,59.170288 129.655396,61.662010 
	C128.808685,62.522564 128.304871,62.957180 127.581932,63.085457 
	C126.741470,61.467541 126.454155,59.686932 125.422150,58.951965 
	C123.787170,57.787563 121.509697,56.347912 120.001907,59.944283 
	C119.177109,60.571774 118.535675,60.885265 117.861496,61.242935 
	C117.828735,61.287113 117.719154,61.277641 117.810928,60.870918 
	C117.461555,59.374489 117.020416,58.284786 116.579277,57.195091 
	C116.014030,57.885246 115.448784,58.575401 114.617538,59.015736 
	C113.754738,56.896049 113.157944,55.026188 112.917389,53.011848 
	C114.655067,52.199993 116.036514,51.532612 117.417953,50.865231 
z"/>
<path fill="#7189D8" opacity="1.000000" stroke="none" 
	d="
M98.781822,99.571304 
	C98.006554,100.013245 97.315361,99.999985 96.081177,99.701622 
	C92.321564,98.339088 89.570839,97.038261 89.089714,92.959229 
	C88.734413,89.946945 87.554863,87.031883 87.027824,84.128876 
	C87.884285,83.765373 88.455467,83.346512 89.295792,83.154381 
	C91.038757,87.402878 92.512589,91.424637 93.986412,95.446396 
	C94.469154,95.351730 94.951904,95.257057 95.434647,95.162392 
	C95.617165,92.772964 95.799683,90.383545 96.253281,88.109680 
	C97.254257,88.474709 97.984138,88.724182 98.714027,88.973656 
	C98.764648,92.354477 98.815269,95.735298 98.781822,99.571304 
z"/>
<path fill="#67A5B8" opacity="1.000000" stroke="none" 
	d="
M95.135849,49.620007 
	C96.401176,52.298050 98.381668,54.877617 98.767113,57.676819 
	C99.371513,62.066143 98.899048,66.603752 98.532120,71.539764 
	C97.827599,71.993011 97.473618,71.985054 97.072945,71.556976 
	C96.482849,67.885246 95.939461,64.633629 95.309616,60.864658 
	C93.501587,63.013477 92.201920,64.558113 90.339066,66.772087 
	C90.170792,64.861992 90.088753,63.930874 90.230469,62.732582 
	C92.012115,60.554283 93.570007,58.643158 95.620789,56.127384 
	C95.293747,55.312157 94.638153,53.677898 94.115372,51.736263 
	C94.544067,50.825928 94.839958,50.222969 95.135849,49.620007 
z"/>
<path fill="#C181B0" opacity="1.000000" stroke="none" 
	d="
M103.443909,126.982971 
	C105.148911,125.341644 101.762878,121.574928 106.308746,121.872353 
	C106.706673,128.141479 106.905174,134.392105 106.819611,140.638840 
	C106.805283,141.684418 105.558716,142.713135 104.881531,143.749634 
	C104.312599,142.774475 103.283493,141.813080 103.253876,140.821808 
	C103.121246,136.382278 103.273262,131.934265 103.443909,126.982971 
z"/>
<path fill="#6CAEA9" opacity="1.000000" stroke="none" 
	d="
M94.811996,49.390129 
	C94.839958,50.222969 94.544067,50.825928 93.782173,51.718761 
	C92.875511,51.949669 92.434860,51.890701 91.928345,51.502487 
	C88.055511,49.822174 86.761612,50.726955 84.636162,56.008717 
	C80.900864,58.075741 75.285271,57.041840 74.560822,62.866047 
	C73.604797,62.480576 72.900459,62.230675 72.196129,61.980770 
	C72.551880,57.618462 74.871178,55.185978 79.167160,54.171871 
	C80.764282,53.794849 81.973213,51.860435 83.577065,51.407104 
	C87.141045,50.399727 90.842644,49.879230 94.811996,49.390129 
z"/>
<path fill="#7189D8" opacity="1.000000" stroke="none" 
	d="
M78.074791,98.598160 
	C77.383049,100.094147 76.729240,101.192352 76.044754,102.619537 
	C76.565598,96.382973 70.242477,93.685783 67.918594,88.068748 
	C67.632072,86.930435 67.421028,86.419121 67.209991,85.907814 
	C67.195122,85.198074 67.180252,84.488327 67.217155,83.427673 
	C69.205383,81.341393 70.088058,82.096771 70.342087,84.370377 
	C70.751251,88.032516 72.492973,90.612038 75.687180,92.708298 
	C77.092056,93.630272 77.339668,96.315643 78.074791,98.598160 
z"/>
<path fill="#AB73AB" opacity="1.000000" stroke="none" 
	d="
M95.867401,115.631119 
	C96.612518,114.802345 97.304970,114.414490 98.313217,114.019119 
	C98.695335,119.057655 98.761665,124.103691 98.334572,129.612518 
	C97.258026,131.210907 96.256264,132.315979 96.170807,133.487869 
	C95.921181,136.911102 96.037209,140.361008 96.009918,143.800461 
	C95.944855,134.557648 95.879791,125.314842 95.867401,115.631119 
z"/>
<path fill="#6B81D1" opacity="1.000000" stroke="none" 
	d="
M126.473236,102.592781 
	C125.624756,102.701721 124.986320,102.428802 124.112808,101.642563 
	C123.638435,96.887749 124.542473,93.390152 128.680756,91.003426 
	C130.009552,90.237053 130.332977,87.727493 131.476166,86.011330 
	C132.546555,86.979973 133.257111,87.952728 133.967682,88.925484 
	C133.126160,90.266129 132.597488,92.183113 131.385391,92.841118 
	C127.496559,94.952187 126.719368,98.326401 126.473236,102.592781 
z"/>
<path fill="#B0C5F5" opacity="1.000000" stroke="none" 
	d="
M104.061279,100.971130 
	C103.954231,104.768143 103.847191,108.565147 103.553711,112.718048 
	C103.312645,95.258018 103.258018,77.442108 103.519470,59.603165 
	C103.906570,60.080555 103.977592,60.580971 104.021713,61.537781 
	C104.025978,66.673302 104.057137,71.352440 104.053864,76.497078 
	C104.033379,84.965431 104.047333,92.968285 104.061279,100.971130 
z"/>
<path fill="#6F97DA" opacity="1.000000" stroke="none" 
	d="
M134.183258,88.606949 
	C133.257111,87.952728 132.546555,86.979973 131.423431,85.600464 
	C131.128189,81.456055 131.245514,77.718414 131.727432,73.984848 
	C133.064255,73.987000 134.036484,73.985069 135.008728,73.983139 
	C134.805420,78.751564 134.602127,83.519997 134.183258,88.606949 
z"/>
<path fill="#608CD2" opacity="1.000000" stroke="none" 
	d="
M97.119644,71.977097 
	C97.473618,71.985054 97.827599,71.993011 98.446579,72.000275 
	C98.762466,77.350838 98.813347,82.702095 98.789124,88.513504 
	C97.984138,88.724182 97.254257,88.474709 96.211853,87.646210 
	C96.306099,82.037163 96.712875,77.007126 97.119644,71.977097 
z"/>
<path fill="#6EB29B" opacity="1.000000" stroke="none" 
	d="
M117.121925,50.591202 
	C116.036514,51.532612 114.655067,52.199993 112.641266,52.808792 
	C108.290245,50.625965 107.355301,53.180058 106.228630,55.989670 
	C105.201302,55.993801 104.515717,55.994534 103.830124,55.995266 
	C104.816208,48.706081 107.920929,47.349567 117.121925,50.591202 
z"/>
<path fill="#AE5685" opacity="1.000000" stroke="none" 
	d="
M96.171356,144.084473 
	C96.037209,140.361008 95.921181,136.911102 96.170807,133.487869 
	C96.256264,132.315979 97.258026,131.210907 98.225014,130.071320 
	C98.609726,134.491364 98.610580,138.915375 98.357971,143.768616 
	C98.104507,144.197815 98.062180,144.267014 98.062180,144.267014 
	C97.485718,144.300827 96.909248,144.334656 96.171356,144.084473 
z"/>
<path fill="#6B9FC6" opacity="1.000000" stroke="none" 
	d="
M135.004471,73.610504 
	C134.036484,73.985069 133.064255,73.987000 131.668213,73.653900 
	C131.149292,72.882187 131.054169,72.445511 130.931641,71.649475 
	C129.869843,68.657341 128.835449,66.024567 127.801048,63.391792 
	C128.304871,62.957180 128.808685,62.522564 129.655975,62.031639 
	C131.666367,65.729507 133.333298,69.483688 135.004471,73.610504 
z"/>
<path fill="#67A5B8" opacity="1.000000" stroke="none" 
	d="
M65.188202,44.902000 
	C66.076546,44.847939 66.684631,44.928032 67.749664,45.046806 
	C63.841690,52.772671 62.439205,54.028923 58.891758,52.724098 
	C60.964958,50.074810 62.936455,47.555481 65.188202,44.902000 
z"/>
<path fill="#67A5B8" opacity="1.000000" stroke="none" 
	d="
M103.765945,56.350887 
	C104.515717,55.994534 105.201302,55.993801 106.342392,56.344837 
	C108.401161,58.751232 110.004440,60.805859 111.178497,62.897507 
	C109.896149,62.963779 109.043030,62.993027 108.042313,62.806435 
	C107.272179,62.416782 106.649635,62.242973 105.772537,61.956810 
	C105.028191,61.590099 104.538399,61.335747 104.048615,61.081390 
	C103.977592,60.580971 103.906570,60.080555 103.701263,59.225548 
	C103.611908,58.149475 103.656837,57.427990 103.765945,56.350887 
z"/>
<path fill="#6B9FC6" opacity="1.000000" stroke="none" 
	d="
M72.022491,62.300293 
	C72.900459,62.230675 73.604797,62.480576 74.501205,63.193802 
	C74.355942,64.712296 74.018600,65.767471 73.681252,66.822647 
	C72.381660,68.214745 71.082069,69.606842 69.434067,70.981209 
	C70.006721,68.182259 70.927788,65.401039 72.022491,62.300293 
z"/>
<path fill="#A06197" opacity="1.000000" stroke="none" 
	d="
M75.863083,126.731148 
	C76.063995,126.014297 76.362320,125.620911 76.987610,125.047569 
	C79.438347,128.166992 82.880119,131.065414 80.847687,136.823807 
	C78.888535,132.907578 77.424515,129.981094 75.863083,126.731148 
z"/>
<path fill="#EEF5FE" opacity="1.000000" stroke="none" 
	d="
M66.958008,86.053528 
	C67.421028,86.419121 67.632072,86.930435 67.809387,87.726013 
	C67.419121,87.406609 67.062576,86.802917 66.958008,86.053528 
z"/>
<path fill="#AB73AB" opacity="1.000000" stroke="none" 
	d="
M98.135925,144.336136 
	C98.062180,144.267014 98.104507,144.197815 98.115021,144.183426 
	C98.125526,144.169037 98.209671,144.405258 98.135925,144.336136 
z"/>
<path fill="#A06197" opacity="1.000000" stroke="none" 
	d="
M107.330795,158.718475 
	C100.875305,159.048553 94.638245,160.317978 89.348877,155.379318 
	C96.693565,155.707733 103.742638,156.022934 110.791718,156.338135 
	C110.858521,156.626999 110.925316,156.915863 110.992119,157.204727 
	C109.913872,157.673569 108.835617,158.142410 107.330795,158.718475 
z"/>
<path fill="#E5F4FD" opacity="1.000000" stroke="none" 
	d="
M73.976227,66.997025 
	C74.018600,65.767471 74.355942,64.712296 74.752907,63.329369 
	C75.285271,57.041840 80.900864,58.075741 84.631790,56.025391 
	C84.997261,56.001087 85.029755,56.006371 85.055977,56.378845 
	C83.940781,57.705669 82.751534,58.609093 81.668808,59.625938 
	C79.918610,61.269638 78.238464,62.987923 76.528732,64.674713 
	C76.861633,64.971428 77.194534,65.268143 77.527443,65.564865 
	C78.684639,65.041489 79.841835,64.518120 80.856140,64.332428 
	C79.572159,67.754601 78.431076,70.839104 77.231293,73.549408 
	C75.649345,72.205444 80.177460,68.087440 75.008018,69.014595 
	C74.762421,68.400200 74.516815,67.785805 73.976227,66.997025 
z"/>
<path fill="#608CD2" opacity="1.000000" stroke="none" 
	d="
M75.000031,69.423630 
	C80.177460,68.087440 75.649345,72.205444 77.142654,73.936028 
	C77.172974,75.481934 77.233223,76.267029 77.284836,77.307205 
	C77.475777,77.831718 77.675339,78.101158 77.920334,78.698669 
	C78.675339,80.623260 79.384918,82.219780 79.930786,84.087631 
	C79.190376,84.573441 78.613678,84.787910 78.036987,85.002380 
	C74.184608,80.515350 73.069748,75.478828 75.000031,69.423630 
z"/>
<path fill="#7787CF" opacity="1.000000" stroke="none" 
	d="
M78.118980,85.335655 
	C78.613678,84.787910 79.190376,84.573441 80.241623,84.243195 
	C82.381828,87.753654 84.047478,91.379883 85.713127,95.006119 
	C85.038116,95.002907 84.363113,94.999695 83.350662,94.999420 
	C81.409149,91.891220 79.805061,88.780075 78.118980,85.335655 
z"/>
<path fill="#EDF6FD" opacity="1.000000" stroke="none" 
	d="
M111.607719,62.860481 
	C110.004440,60.805859 108.401161,58.751232 106.684128,56.341434 
	C107.355301,53.180058 108.290245,50.625965 112.285034,52.953270 
	C113.157944,55.026188 113.754738,56.896049 114.706345,59.323467 
	C115.947151,60.346561 116.833153,60.812103 117.719154,61.277641 
	C117.719154,61.277641 117.828735,61.287113 118.039093,61.528244 
	C120.371925,64.713211 122.494415,67.657036 124.663185,70.993965 
	C125.781044,75.820183 124.699402,79.637680 121.875526,83.233902 
	C120.782051,84.626434 120.568848,86.710197 119.778809,88.673721 
	C119.067955,89.812592 118.532898,90.756783 117.668701,91.989059 
	C117.155724,95.428047 116.971886,98.578972 116.788055,101.729889 
	C113.631737,103.560196 110.475433,105.390511 106.732407,107.561058 
	C106.732407,104.945595 106.732407,102.431152 107.086845,99.359734 
	C114.076828,97.817688 112.568024,92.363434 113.531723,87.904701 
	C114.706970,86.132904 115.479813,84.456093 116.615089,83.077812 
	C119.732124,79.293579 120.555733,75.291702 118.227966,70.476753 
	C115.973701,67.711365 113.790710,65.285919 111.607719,62.860481 
z"/>
<path fill="#EEF5FE" opacity="1.000000" stroke="none" 
	d="
M117.997841,91.700981 
	C118.532898,90.756783 119.067955,89.812592 120.136536,88.561493 
	C123.112404,85.169968 125.554741,82.085350 128.278961,78.740326 
	C129.360229,76.322891 130.159637,74.165863 130.959045,72.008835 
	C131.054169,72.445511 131.149292,72.882187 131.303650,73.649811 
	C131.245514,77.718414 131.128189,81.456055 131.063599,85.604568 
	C130.332977,87.727493 130.009552,90.237053 128.680756,91.003426 
	C124.542473,93.390152 123.638435,96.887749 123.861862,101.554649 
	C120.670601,107.028122 115.976700,109.849052 110.684372,111.792305 
	C110.304375,111.264618 109.924377,110.736931 109.544380,110.209244 
	C112.632576,108.020233 115.720772,105.831223 119.268555,103.072739 
	C119.151382,98.902512 118.574615,95.301743 117.997841,91.700981 
z"/>
<path fill="#657CCC" opacity="1.000000" stroke="none" 
	d="
M113.294685,88.135887 
	C112.568024,92.363434 114.076828,97.817688 107.066742,98.924080 
	C106.010239,99.676186 105.328270,100.306969 104.353798,100.954445 
	C104.047333,92.968285 104.033379,84.965431 104.366302,76.489204 
	C105.130943,76.021378 105.548706,76.026932 105.998199,76.496735 
	C106.038658,82.095642 105.930168,87.235374 106.152252,92.360786 
	C106.198235,93.422127 107.472633,94.430252 108.531136,95.254761 
	C109.809875,91.456642 110.738350,87.866669 111.751602,84.706421 
	C112.322479,86.136070 112.808586,87.135979 113.294685,88.135887 
z"/>
<path fill="#657CCC" opacity="1.000000" stroke="none" 
	d="
M117.668701,91.989059 
	C118.574615,95.301743 119.151382,98.902512 119.435471,102.771729 
	C118.491531,102.800194 117.840263,102.560196 116.988525,102.025040 
	C116.971886,98.578972 117.155724,95.428047 117.668701,91.989059 
z"/>
<path fill="#EDF6FD" opacity="1.000000" stroke="none" 
	d="
M85.774521,95.388321 
	C84.047478,91.379883 82.381828,87.753654 80.405334,83.971855 
	C79.384918,82.219780 78.675339,80.623260 77.909912,78.443840 
	C77.667206,77.591331 77.480339,77.321732 77.293472,77.052132 
	C77.233223,76.267029 77.172974,75.481934 77.201355,74.310211 
	C78.431076,70.839104 79.572159,67.754601 81.019943,64.028465 
	C83.473785,61.893368 85.620949,60.399906 87.918320,58.581055 
	C89.377090,56.114353 90.685646,53.973042 91.994202,51.831730 
	C92.434860,51.890701 92.875511,51.949669 93.649368,52.026138 
	C94.638153,53.677898 95.293747,55.312157 95.620789,56.127384 
	C93.570007,58.643158 92.012115,60.554283 89.924171,62.883469 
	C87.304268,65.502434 85.098228,67.609825 83.201591,69.966248 
	C82.691010,70.600601 83.120659,71.991722 83.047913,73.374741 
	C82.888954,74.166786 82.800812,74.619545 82.519890,75.269432 
	C82.467850,76.289841 82.608582,77.113113 82.874870,78.259583 
	C84.247803,80.413017 85.495178,82.243263 86.742554,84.073509 
	C87.554863,87.031883 88.734413,89.946945 89.089714,92.959229 
	C89.570839,97.038261 92.321564,98.339088 95.734825,99.706070 
	C95.931473,102.553375 95.931473,105.111137 95.931473,108.168381 
	C92.154762,105.658325 88.866173,104.025467 86.393845,101.570557 
	C85.333557,100.517738 85.970253,97.755882 85.774521,95.388321 
z"/>
<path fill="#E5F4FD" opacity="1.000000" stroke="none" 
	d="
M130.931641,71.649475 
	C130.159637,74.165863 129.360229,76.322891 128.282288,78.303185 
	C127.407806,74.689224 126.811859,71.251991 126.178452,67.449326 
	C124.155754,64.599350 122.170509,62.114819 120.185272,59.630283 
	C121.509697,56.347912 123.787170,57.787563 125.422150,58.951965 
	C126.454155,59.686932 126.741470,61.467541 127.581932,63.085457 
	C128.835449,66.024567 129.869843,68.657341 130.931641,71.649475 
z"/>
<path fill="#67A5B8" opacity="1.000000" stroke="none" 
	d="
M120.001907,59.944283 
	C122.170509,62.114819 124.155754,64.599350 125.852974,67.701416 
	C125.248940,69.079590 124.932915,69.840225 124.616898,70.600868 
	C122.494415,67.657036 120.371925,64.713211 118.071846,61.484070 
	C118.535675,60.885265 119.177109,60.571774 120.001907,59.944283 
z"/>
<path fill="#67A5B8" opacity="1.000000" stroke="none" 
	d="
M117.810928,60.870918 
	C116.833153,60.812103 115.947151,60.346561 114.972336,59.573292 
	C115.448784,58.575401 116.014030,57.885246 116.579277,57.195091 
	C117.020416,58.284786 117.461555,59.374489 117.810928,60.870918 
z"/>
<path fill="#E5F4FD" opacity="1.000000" stroke="none" 
	d="
M83.118713,73.035461 
	C83.120659,71.991722 82.691010,70.600601 83.201591,69.966248 
	C85.098228,67.609825 87.304268,65.502434 89.700424,63.150642 
	C90.088753,63.930874 90.170792,64.861992 90.339066,66.772087 
	C92.201920,64.558113 93.501587,63.013477 95.309616,60.864658 
	C95.939461,64.633629 96.482849,67.885246 97.072952,71.556976 
	C96.712875,77.007126 96.306099,82.037163 95.940765,87.530655 
	C95.799683,90.383545 95.617165,92.772964 95.434647,95.162392 
	C94.951904,95.257057 94.469154,95.351730 93.986412,95.446396 
	C92.512589,91.424637 91.038757,87.402878 89.175041,82.829788 
	C87.525620,79.234764 86.305481,76.173111 84.939224,73.178108 
	C84.816727,72.909607 83.747993,73.072769 83.118713,73.035461 
z"/>
<path fill="#608CD2" opacity="1.000000" stroke="none" 
	d="
M83.047913,73.374741 
	C83.747993,73.072769 84.816727,72.909607 84.939224,73.178108 
	C86.305481,76.173111 87.525620,79.234764 88.905899,82.603043 
	C88.455467,83.346512 87.884285,83.765373 87.027824,84.128876 
	C85.495178,82.243263 84.247803,80.413017 82.927841,77.903137 
	C82.807724,76.506439 82.760193,75.789375 82.712662,75.072304 
	C82.800812,74.619545 82.888954,74.166786 83.047913,73.374741 
z"/>
<path fill="#67A5B8" opacity="1.000000" stroke="none" 
	d="
M91.928345,51.502487 
	C90.685646,53.973042 89.377090,56.114353 87.698608,58.395737 
	C86.562363,57.692665 85.796059,56.849518 85.029755,56.006371 
	C85.029755,56.006371 84.997261,56.001087 85.001633,55.984413 
	C86.761612,50.726955 88.055511,49.822174 91.928345,51.502487 
z"/>
<path fill="#608CD2" opacity="1.000000" stroke="none" 
	d="
M105.966476,76.032486 
	C105.548706,76.026932 105.130943,76.021378 104.400734,76.023697 
	C104.057137,71.352440 104.025978,66.673302 104.021713,61.537781 
	C104.538399,61.335747 105.028191,61.590099 105.792236,62.413277 
	C106.033165,67.332222 105.999825,71.682358 105.966476,76.032486 
z"/>
<path fill="#6B9FC6" opacity="1.000000" stroke="none" 
	d="
M111.178497,62.897507 
	C113.790710,65.285919 115.973701,67.711365 117.950310,70.625786 
	C117.218697,71.747833 116.693466,72.380898 116.005035,72.697067 
	C113.161880,69.281906 110.481911,66.183640 107.900764,63.080845 
	C107.999580,63.076313 108.189903,63.022274 108.189903,63.022274 
	C109.043030,62.993027 109.896149,62.963779 111.178497,62.897507 
z"/>
<path fill="#B0C5F5" opacity="1.000000" stroke="none" 
	d="
M105.998199,76.496735 
	C105.999825,71.682358 106.033165,67.332222 106.046799,62.525627 
	C106.649635,62.242973 107.272179,62.416782 108.042313,62.806435 
	C108.189903,63.022274 107.999580,63.076313 107.640961,63.391228 
	C107.204079,73.246368 107.090080,82.786621 107.098434,92.326767 
	C107.099342,93.372459 107.803108,94.417534 108.180878,95.462898 
	C107.472633,94.430252 106.198235,93.422127 106.152252,92.360786 
	C105.930168,87.235374 106.038658,82.095642 105.998199,76.496735 
z"/>
<path fill="#6B9FC6" opacity="1.000000" stroke="none" 
	d="
M85.055977,56.378845 
	C85.796059,56.849518 86.562363,57.692665 87.548393,58.721130 
	C85.620949,60.399906 83.473785,61.893368 81.162827,63.690788 
	C79.841835,64.518120 78.684639,65.041489 77.527443,65.564865 
	C77.194534,65.268143 76.861633,64.971428 76.528732,64.674713 
	C78.238464,62.987923 79.918610,61.269638 81.668808,59.625938 
	C82.751534,58.609093 83.940781,57.705669 85.055977,56.378845 
z"/>
<path fill="#E5F4FD" opacity="1.000000" stroke="none" 
	d="
M77.284836,77.307205 
	C77.480339,77.321732 77.667206,77.591331 77.864487,78.115761 
	C77.675339,78.101158 77.475777,77.831718 77.284836,77.307205 
z"/>
<path fill="#608CD2" opacity="1.000000" stroke="none" 
	d="
M116.168236,73.013954 
	C116.693466,72.380898 117.218697,71.747833 118.021591,70.965736 
	C120.555733,75.291702 119.732124,79.293579 116.615089,83.077812 
	C115.479813,84.456093 114.706970,86.132904 113.531723,87.904701 
	C112.808586,87.135979 112.322479,86.136070 111.887100,84.414238 
	C113.286995,80.108711 117.822472,77.787407 116.168236,73.013954 
z"/>
<path fill="#608CD2" opacity="1.000000" stroke="none" 
	d="
M124.663177,70.993965 
	C124.932915,69.840225 125.248940,69.079590 125.890427,68.066856 
	C126.811859,71.251991 127.407806,74.689224 128.000427,78.563599 
	C125.554741,82.085350 123.112404,85.169968 120.312347,88.366821 
	C120.568848,86.710197 120.782051,84.626434 121.875526,83.233902 
	C124.699402,79.637680 125.781044,75.820183 124.663177,70.993965 
z"/>
<path fill="#F9FAFC" opacity="1.000000" stroke="none" 
	d="
M116.005035,72.697067 
	C117.822472,77.787407 113.286995,80.108711 111.802322,83.984497 
	C110.738350,87.866669 109.809875,91.456642 108.531136,95.254761 
	C107.803108,94.417534 107.099342,93.372459 107.098434,92.326767 
	C107.090080,82.786621 107.204079,73.246368 107.542145,63.395760 
	C110.481911,66.183640 113.161880,69.281906 116.005035,72.697067 
z"/>
<path fill="#E5F4FD" opacity="1.000000" stroke="none" 
	d="
M82.519890,75.269432 
	C82.760193,75.789375 82.807724,76.506439 82.802292,77.579956 
	C82.608582,77.113113 82.467850,76.289841 82.519890,75.269432 
z"/>
</svg>