<svg version="1.1" id="Layer_1" xmlns="http://www.w3.org/2000/svg" xmlns:xlink="http://www.w3.org/1999/xlink" x="0px" y="0px"
	 width="100%" viewBox="0 0 549 460" enable-background="new 0 0 549 460" xml:space="preserve">
<path fill="#000000" opacity="1.000000" stroke="none" 
	d="
M504.000000,461.000000 
	C336.000061,461.000000 168.500122,461.000000 1.000135,461.000000 
	C1.000090,307.666779 1.000090,154.333557 1.000045,1.000258 
	C183.999817,1.000172 366.999634,1.000172 549.999634,1.000086 
	C549.999756,154.333099 549.999756,307.666199 549.999878,460.999634 
	C534.833313,461.000000 519.666687,461.000000 504.000000,461.000000 
M250.980789,213.992264 
	C250.980789,213.992264 250.914963,214.084595 250.986954,213.345718 
	C249.597473,211.152191 248.446869,208.754837 246.778427,206.799332 
	C238.093506,196.620026 227.953400,188.363312 214.543869,185.536896 
	C208.632523,184.290939 202.301132,183.967422 198.021942,190.024918 
	C198.021942,190.024918 198.065475,190.086990 197.391098,190.113098 
	C197.696625,191.654495 197.479660,193.689117 198.393036,194.656708 
	C204.046600,200.645798 209.876816,206.475754 215.821030,212.178589 
	C217.816284,214.092819 218.050629,215.555923 215.353760,216.927048 
	C202.540848,211.153214 189.953903,204.783798 176.838242,199.807938 
	C167.580093,196.295563 157.585983,195.773727 148.076187,200.056152 
	C138.440033,204.395416 136.267609,213.493088 143.738159,220.934814 
	C147.612350,224.794067 152.719849,228.026413 157.869064,229.861984 
	C167.382324,233.253296 177.194504,236.292145 187.137360,237.887863 
	C206.010300,240.916809 225.063248,242.824188 244.591232,245.661026 
	C247.384430,246.429138 250.177612,247.197266 253.741226,247.757111 
	C254.497849,244.185944 255.254471,240.614761 256.211975,237.523422 
	C256.504456,237.709274 256.796936,237.895111 257.153198,238.988892 
	C256.379120,247.475220 255.605026,255.961563 254.727554,265.581299 
	C259.676636,264.892578 265.045959,265.778839 267.356689,263.526825 
	C275.244720,255.839096 282.056549,247.047150 289.672424,238.220673 
	C279.498657,231.765839 269.508942,227.332199 258.034149,225.976349 
	C257.177979,221.099167 255.907150,216.470474 250.980789,213.992264 
M195.510834,251.062256 
	C190.975845,251.062256 186.440857,251.062256 180.539780,251.062256 
	C182.363297,253.998230 182.928833,256.132019 184.248962,256.821930 
	C189.887390,259.768707 195.619263,264.194122 201.553619,264.597198 
	C217.454636,265.677277 233.477539,265.008942 249.450867,264.885223 
	C250.643951,264.875977 252.700882,263.846466 252.865753,263.000702 
	C253.602707,259.220215 253.798767,255.334274 254.233490,251.060501 
	C234.390503,251.060501 215.448456,251.060501 195.510834,251.062256 
M351.341522,247.990112 
	C350.831909,242.421524 347.732727,238.479401 343.373535,235.339798 
	C340.408569,233.204407 337.231079,231.315186 334.500000,228.915878 
	C330.784424,225.651642 329.878204,220.445511 331.995270,216.664520 
	C334.361481,212.438690 338.312592,212.242462 342.433868,212.874268 
	C344.306091,213.161255 346.119080,213.834641 348.187897,214.394730 
	C348.845459,212.423569 349.398071,210.766922 349.929657,209.173340 
	C342.438568,205.079849 334.857513,205.092972 329.407227,209.156525 
	C323.762543,213.365036 322.162537,219.367188 324.186554,225.597427 
	C325.432770,229.433487 328.536926,232.863861 331.404144,235.915161 
	C333.867249,238.536392 337.360931,240.157166 340.069550,242.587402 
	C343.894470,246.019211 344.871735,251.319687 342.575745,255.310944 
	C340.014282,259.763672 335.779999,260.299072 331.261719,259.400818 
	C329.056793,258.962463 326.954041,258.010529 324.536743,257.201233 
	C323.829498,259.178406 323.190308,260.965240 322.585693,262.655518 
	C337.150452,271.258698 351.177795,264.283203 351.341522,247.990112 
M387.031586,260.815552 
	C386.483795,259.539948 385.936035,258.264374 385.390991,256.995209 
	C372.862610,262.507965 365.550385,258.889099 363.509918,245.802200 
	C362.547333,239.628677 362.697540,233.171585 363.181488,226.907700 
	C363.959015,216.844406 369.576843,208.553223 383.523865,215.077072 
	C383.783295,215.198425 384.161926,215.065002 384.845856,215.034164 
	C385.461426,213.355560 386.120819,211.557358 386.744720,209.856033 
	C375.684998,202.593033 362.139557,206.104736 357.709442,217.682678 
	C352.965057,230.081848 353.143890,242.914597 358.123932,255.209641 
	C362.307922,265.539276 376.114380,269.486664 385.668518,263.720245 
	C386.364960,263.299896 386.681122,262.249481 387.031586,260.815552 
M317.612000,225.501282 
	C317.612000,219.578796 317.612000,213.656311 317.612000,207.853577 
	C314.644775,207.853577 312.418762,207.853577 310.280457,207.853577 
	C310.280457,227.022430 310.280457,245.793350 310.280457,264.666382 
	C312.763428,264.666382 314.992126,264.666382 317.611969,264.666382 
	C317.611969,251.763092 317.611969,239.132019 317.612000,225.501282 
M277.281860,255.790100 
	C274.987457,258.524933 272.693054,261.259766 269.567139,264.985718 
	C275.897095,264.985718 280.965088,264.816559 286.015045,265.045166 
	C289.386841,265.197784 291.827179,264.245453 293.263733,261.104340 
	C294.430450,258.553345 296.008728,256.120636 296.732483,253.453140 
	C297.848511,249.339905 297.691650,245.250076 294.462402,241.815796 
	C292.485443,239.713287 290.888519,239.272614 288.854431,241.869522 
	C285.281158,246.431549 281.466064,250.804138 277.281860,255.790100 
z"/>
<path fill="#D92333" opacity="1.000000" stroke="none" 
	d="
M256.011108,237.043594 
	C255.254471,240.614761 254.497849,244.185944 253.247330,247.550262 
	C235.739426,229.982925 218.707657,212.639740 201.743073,195.231094 
	C200.288910,193.738876 199.280807,191.811966 198.065475,190.086990 
	C198.065475,190.086990 198.021942,190.024918 198.425629,189.992661 
	C205.222641,186.856186 211.975616,185.643219 218.573410,188.501129 
	C223.986099,190.845718 229.410110,193.702957 233.938416,197.418488 
	C240.044601,202.428650 245.296463,208.480042 250.914963,214.084595 
	C250.914963,214.084595 250.980789,213.992264 250.985626,214.384415 
	C252.970383,220.000565 254.950287,225.224548 256.929260,230.488373 
	C256.928314,230.528183 256.958405,230.601913 256.708008,230.938217 
	C256.308777,233.197540 256.159943,235.120575 256.011108,237.043594 
z"/>
<path fill="#097C89" opacity="1.000000" stroke="none" 
	d="
M196.008621,251.061371 
	C215.448456,251.060501 234.390503,251.060501 254.233490,251.060501 
	C253.798767,255.334274 253.602707,259.220215 252.865753,263.000702 
	C252.700882,263.846466 250.643951,264.875977 249.450867,264.885223 
	C233.477539,265.008942 217.454636,265.677277 201.553619,264.597198 
	C195.619263,264.194122 189.887390,259.768707 184.248962,256.821930 
	C182.928833,256.132019 182.363297,253.998230 180.539780,251.062256 
	C186.440857,251.062256 190.975845,251.062256 196.008621,251.061371 
z"/>
<path fill="#097C89" opacity="1.000000" stroke="none" 
	d="
M256.958405,230.601913 
	C256.958405,230.601913 256.928314,230.528183 257.254028,230.231873 
	C257.747772,228.866104 257.915802,227.796661 258.083801,226.727219 
	C269.508942,227.332199 279.498657,231.765839 289.672424,238.220673 
	C282.056549,247.047150 275.244720,255.839096 267.356689,263.526825 
	C265.045959,265.778839 259.676636,264.892578 254.727554,265.581299 
	C255.605026,255.961563 256.379120,247.475220 257.184845,238.347473 
	C257.216492,237.706055 257.115753,237.324982 257.275116,237.178375 
	C257.619934,236.790451 257.685547,236.520142 257.705261,235.886536 
	C257.505646,233.902100 257.232025,232.251999 256.958405,230.601913 
z"/>
<path fill="#F2F2F2" opacity="1.000000" stroke="none" 
	d="
M351.380981,248.398544 
	C351.177795,264.283203 337.150452,271.258698 322.585693,262.655518 
	C323.190308,260.965240 323.829498,259.178406 324.536743,257.201233 
	C326.954041,258.010529 329.056793,258.962463 331.261719,259.400818 
	C335.779999,260.299072 340.014282,259.763672 342.575745,255.310944 
	C344.871735,251.319687 343.894470,246.019211 340.069550,242.587402 
	C337.360931,240.157166 333.867249,238.536392 331.404144,235.915161 
	C328.536926,232.863861 325.432770,229.433487 324.186554,225.597427 
	C322.162537,219.367188 323.762543,213.365036 329.407227,209.156525 
	C334.857513,205.092972 342.438568,205.079849 349.929657,209.173340 
	C349.398071,210.766922 348.845459,212.423569 348.187897,214.394730 
	C346.119080,213.834641 344.306091,213.161255 342.433868,212.874268 
	C338.312592,212.242462 334.361481,212.438690 331.995270,216.664520 
	C329.878204,220.445511 330.784424,225.651642 334.500000,228.915878 
	C337.231079,231.315186 340.408569,233.204407 343.373535,235.339798 
	C347.732727,238.479401 350.831909,242.421524 351.380981,248.398544 
z"/>
<path fill="#F2F2F2" opacity="1.000000" stroke="none" 
	d="
M387.102844,261.153748 
	C386.681122,262.249481 386.364960,263.299896 385.668518,263.720245 
	C376.114380,269.486664 362.307922,265.539276 358.123932,255.209641 
	C353.143890,242.914597 352.965057,230.081848 357.709442,217.682678 
	C362.139557,206.104736 375.684998,202.593033 386.744720,209.856033 
	C386.120819,211.557358 385.461426,213.355560 384.845856,215.034164 
	C384.161926,215.065002 383.783295,215.198425 383.523865,215.077072 
	C369.576843,208.553223 363.959015,216.844406 363.181488,226.907700 
	C362.697540,233.171585 362.547333,239.628677 363.509918,245.802200 
	C365.550385,258.889099 372.862610,262.507965 385.390991,256.995209 
	C385.936035,258.264374 386.483795,259.539948 387.102844,261.153748 
z"/>
<path fill="#DDC13B" opacity="1.000000" stroke="none" 
	d="
M244.041428,245.197433 
	C225.063248,242.824188 206.010300,240.916809 187.137360,237.887863 
	C177.194504,236.292145 167.382324,233.253296 157.869064,229.861984 
	C152.719849,228.026413 147.612350,224.794067 143.738159,220.934814 
	C136.267609,213.493088 138.440033,204.395416 148.076187,200.056152 
	C157.585983,195.773727 167.580093,196.295563 176.838242,199.807938 
	C189.953903,204.783798 202.540848,211.153214 215.812393,217.413315 
	C227.911194,225.057785 237.760559,234.229736 246.878677,244.817352 
	C245.651276,244.981766 244.846344,245.089600 244.041428,245.197433 
M230.521942,230.942535 
	C216.052780,219.030792 200.071350,209.895981 182.288879,203.773254 
	C173.799194,200.850143 165.274017,199.441925 156.363251,199.947708 
	C150.467361,200.282364 143.338226,204.840271 142.073227,209.164856 
	C140.644547,214.048965 142.883133,219.321640 149.571594,222.930008 
	C156.220520,226.517059 163.335480,229.569916 170.596161,231.612808 
	C180.416779,234.375992 190.516876,236.285187 200.599396,237.935745 
	C209.232208,239.348984 218.008896,239.883865 226.722290,240.804092 
	C230.987732,241.254578 235.253906,241.697968 239.519760,242.144562 
	C240.027237,241.283722 240.534729,240.422867 241.042206,239.562027 
	C237.702896,236.856354 234.363571,234.150696 230.521942,230.942535 
z"/>
<path fill="#F2F2F2" opacity="1.000000" stroke="none" 
	d="
M317.612000,226.001099 
	C317.611969,239.132019 317.611969,251.763092 317.611969,264.666382 
	C314.992126,264.666382 312.763428,264.666382 310.280457,264.666382 
	C310.280457,245.793350 310.280457,227.022430 310.280457,207.853577 
	C312.418762,207.853577 314.644775,207.853577 317.612000,207.853577 
	C317.612000,213.656311 317.612000,219.578796 317.612000,226.001099 
z"/>
<path fill="#097C89" opacity="1.000000" stroke="none" 
	d="
M277.517090,255.523102 
	C281.466064,250.804138 285.281158,246.431549 288.854431,241.869522 
	C290.888519,239.272614 292.485443,239.713287 294.462402,241.815796 
	C297.691650,245.250076 297.848511,249.339905 296.732483,253.453140 
	C296.008728,256.120636 294.430450,258.553345 293.263733,261.104340 
	C291.827179,264.245453 289.386841,265.197784 286.015045,265.045166 
	C280.965088,264.816559 275.897095,264.985718 269.567139,264.985718 
	C272.693054,261.259766 274.987457,258.524933 277.517090,255.523102 
M291.927429,247.818054 
	C290.204071,245.124283 287.860260,245.622940 286.941589,247.899185 
	C285.700623,250.973984 285.400818,254.473236 285.038788,257.827240 
	C284.946747,258.679840 286.045013,260.330933 286.776337,260.443176 
	C287.837433,260.606110 289.877625,259.933014 290.078705,259.217194 
	C291.058319,255.729691 291.564941,252.109329 291.927429,247.818054 
z"/>
<path fill="#380607" opacity="1.000000" stroke="none" 
	d="
M244.316330,245.429230 
	C244.846344,245.089600 245.651276,244.981766 246.878677,244.817352 
	C237.760559,234.229736 227.911194,225.057785 216.109436,217.614761 
	C218.050629,215.555923 217.816284,214.092819 215.821030,212.178589 
	C209.876816,206.475754 204.046600,200.645798 198.393036,194.656708 
	C197.479660,193.689117 197.696625,191.654495 197.728287,190.100037 
	C199.280807,191.811966 200.288910,193.738876 201.743073,195.231094 
	C218.707657,212.639740 235.739426,229.982925 252.862122,247.654388 
	C250.177612,247.197266 247.384430,246.429138 244.316330,245.429230 
z"/>
<path fill="#380607" opacity="1.000000" stroke="none" 
	d="
M250.950958,213.715149 
	C245.296463,208.480042 240.044601,202.428650 233.938416,197.418488 
	C229.410110,193.702957 223.986099,190.845718 218.573410,188.501129 
	C211.975616,185.643219 205.222641,186.856186 198.459152,190.010345 
	C202.301132,183.967422 208.632523,184.290939 214.543869,185.536896 
	C227.953400,188.363312 238.093506,196.620026 246.778427,206.799332 
	C248.446869,208.754837 249.597473,211.152191 250.950958,213.715149 
z"/>
<path fill="#380607" opacity="1.000000" stroke="none" 
	d="
M258.058960,226.351776 
	C257.915802,227.796661 257.747772,228.866104 257.254974,230.192047 
	C254.950287,225.224548 252.970383,220.000565 250.947083,214.427704 
	C255.907150,216.470474 257.177979,221.099167 258.058960,226.351776 
z"/>
<path fill="#380607" opacity="1.000000" stroke="none" 
	d="
M256.708008,230.938217 
	C257.232025,232.251999 257.505646,233.902100 257.549011,236.025940 
	C257.165405,236.753616 257.097717,237.028702 257.115753,237.324982 
	C257.115753,237.324982 257.216492,237.706055 257.152954,237.893509 
	C256.796936,237.895111 256.504456,237.709274 256.111542,237.283508 
	C256.159943,235.120575 256.308777,233.197540 256.708008,230.938217 
z"/>
<path fill="#000000" opacity="1.000000" stroke="none" 
	d="
M257.275116,237.178375 
	C257.097717,237.028702 257.165405,236.753616 257.475037,236.360291 
	C257.685547,236.520142 257.619934,236.790451 257.275116,237.178375 
z"/>
<path fill="#FED50B" opacity="1.000000" stroke="none" 
	d="
M230.773102,231.193787 
	C234.363571,234.150696 237.702896,236.856354 241.042206,239.562027 
	C240.534729,240.422867 240.027237,241.283722 239.519760,242.144562 
	C235.253906,241.697968 230.987732,241.254578 226.722290,240.804092 
	C218.008896,239.883865 209.232208,239.348984 200.599396,237.935745 
	C190.516876,236.285187 180.416779,234.375992 170.596161,231.612808 
	C163.335480,229.569916 156.220520,226.517059 149.571594,222.930008 
	C142.883133,219.321640 140.644547,214.048965 142.073227,209.164856 
	C143.338226,204.840271 150.467361,200.282364 156.363251,199.947708 
	C165.274017,199.441925 173.799194,200.850143 182.288879,203.773254 
	C200.071350,209.895981 216.052780,219.030792 230.773102,231.193787 
z"/>
<path fill="#000000" opacity="1.000000" stroke="none" 
	d="
M292.083191,248.177017 
	C291.564941,252.109329 291.058319,255.729691 290.078705,259.217194 
	C289.877625,259.933014 287.837433,260.606110 286.776337,260.443176 
	C286.045013,260.330933 284.946747,258.679840 285.038788,257.827240 
	C285.400818,254.473236 285.700623,250.973984 286.941589,247.899185 
	C287.860260,245.622940 290.204071,245.124283 292.083191,248.177017 
z"/>
</svg>